<svg width="320" height="320" viewBox="0 0 320 320" fill="none" xmlns="http://www.w3.org/2000/svg">
  <rect width="320" height="320" rx="72" fill="#231815"/>
  <path d="M84 227V91H138.668C154.747 91 168.269 94.2117 179.233 100.635C190.32 106.935 198.597 115.643 204.064 126.758C209.531 137.751 212.264 150.324 212.264 164.479C212.264 178.633 209.47 191.267 203.881 202.381C198.415 213.373 190.077 222.02 178.868 228.32C167.78 234.62 154.014 237.77 137.568 237.77H97.4852V208.508H133.926C144.319 208.508 152.84 206.766 159.49 203.285C166.14 199.682 171.059 194.58 174.247 187.978C177.557 181.253 179.212 173.42 179.212 164.479C179.212 155.414 177.557 147.521 174.247 140.797C171.059 133.95 166.079 128.666 159.307 124.942C152.657 121.095 144.075 119.172 133.56 119.172H117.205V227H84Z" fill="#F7F1E8"/>
  <path d="M205.205 237.77L154.375 173.918L179.781 154.948L243.94 237.77H205.205Z" fill="#D55F3F"/>
</svg>